PathFileType	4	(X/Y/Z)	A:\Common\BMMB\PROJECTS\STRATO\DataSTRATO\DataSTRATO\0021~016 ID\0021~aa~ID 016\Standing_STRATO_ID_16.trc
DataRate	CameraRate	NumFrames	NumMarkers	Units	OrigDataRate	OrigDataStartFrame	OrigNumFrames
250.00	250.00	5	22	mm	250.00	1104	3281
Frame#	Time	r.should			l.should			c7			r.asis			l.asis			sacrum			r.bar1			l.bar1			r.knee1			l.knee1			r.bar2			r.mall			l.bar2			l.mall			r.met			r.heel			l.heel			l.met			r.mallm			l.mallm			r.kneem			l.kneem			
		X1	Y1	Z1	X2	Y2	Z2	X3	Y3	Z3	X4	Y4	Z4	X5	Y5	Z5	X6	Y6	Z6	X7	Y7	Z7	X8	Y8	Z8	X9	Y9	Z9	X10	Y10	Z10	X11	Y11	Z11	X12	Y12	Z12	X13	Y13	Z13	X14	Y14	Z14	X15	Y15	Z15	X16	Y16	Z16	X17	Y17	Z17	X18	Y18	Z18	X19	Y19	Z19	X20	Y20	Z20	X21	Y21	Z21	X22	Y22	Z22	

1103	4.412000	336.819053	1331.665993	297.091037	39.205942	1346.320987	292.774260	197.224736	1389.741182	378.847510	295.798421	889.228702	147.741348	55.353757	876.903176	166.983426	192.314297	953.000426	380.444407	391.078293	815.250337	235.173956	-11.577705	791.653693	265.678823	351.125062	465.383112	278.610557	13.381282	468.186885	352.648020	337.466657	414.072871	274.079204	328.307569	70.465051	304.899871	10.612532	424.198925	362.399727	49.122661	53.426750	336.933851	295.195758	36.741678	163.564339	286.456317	37.147459	362.738013	96.095026	32.088656	401.265711	75.646110	36.077548	196.415827	243.594512	78.568518	299.247205	129.693776	79.455286	329.821676	207.717434	440.693378	321.038961	160.493419	445.703357	360.418826	
1104	4.416000	336.819053	1331.657767	297.115445	39.192878	1346.307397	292.823613	197.217673	1389.737964	378.850549	295.808017	889.226973	147.740364	55.347335	876.904786	166.951030	192.317158	952.998340	380.443931	391.084969	815.237343	235.197380	-11.568156	791.655004	265.645146	351.122916	465.379864	278.611302	13.394566	468.190849	352.653414	337.473184	414.065659	274.082363	328.306735	70.464395	304.908693	10.594798	424.214572	362.389058	49.217381	54.276541	335.491180	295.199990	36.738455	163.595736	286.443472	37.172463	362.769961	96.106142	32.090321	401.270360	75.627072	36.057208	196.391016	243.598863	78.565106	299.252033	129.701868	79.456866	329.854429	207.715228	440.689713	321.008027	160.495371	445.704967	360.440314	
1105	4.420000	336.817384	1331.658840	297.121793	39.192926	1346.312165	292.803943	197.203904	1389.731646	378.857553	295.805454	889.244854	147.705585	55.338565	876.908779	166.949049	192.312777	953.006804	380.455971	391.080141	815.239251	235.222131	-11.584692	791.654587	265.653998	351.117253	465.379834	278.607190	13.381515	468.163759	352.652758	337.474763	414.068103	274.081886	328.309089	70.472881	304.915041	10.585623	424.221128	362.396836	49.239509	54.538067	335.056216	295.195341	36.734566	163.602114	286.428958	37.176400	362.782419	96.110404	32.088172	401.286781	75.610266	36.040723	196.370527	243.586704	78.581154	299.251825	129.701078	79.446621	329.857469	207.709089	440.696150	320.999295	160.488501	445.702672	360.440224	
1106	4.424000	336.797357	1331.664681	297.107160	39.184313	1346.315503	292.783976	197.197765	1389.731765	378.837347	295.803815	889.223635	147.701129	55.333156	876.927733	166.907668	192.320913	953.007936	380.444407	391.059637	815.243840	235.201553	-11.580417	791.663349	265.652210	351.115972	465.388924	278.600037	13.370251	468.156815	352.636099	337.462544	414.064109	274.087012	328.306943	70.475779	304.924190	10.595098	424.217761	362.405419	49.232498	54.566801	334.990919	295.197964	36.733974	163.584352	286.428034	37.170060	362.762004	96.110351	32.100722	401.286304	75.595587	36.027860	196.354061	243.580446	78.595892	299.229205	129.709929	79.462491	329.861283	207.697943	440.699816	320.997417	160.486713	445.705503	360.428184	
1107	4.428000	336.795688	1331.670642	297.088772	39.169129	1346.303225	292.752981	197.204709	1389.729023	378.833354	295.798719	889.211774	147.695899	55.333920	876.930535	166.870683	192.338616	953.008294	380.443841	391.063660	815.238059	235.209808	-11.578733	791.661620	265.637040	351.119727	465.378344	278.600216	13.379561	468.173265	352.639914	337.457955	414.066344	274.087369	328.301162	70.476450	304.914117	10.597158	424.215853	362.401187	49.167529	54.095030	335.770994	295.211494	36.739714	163.571641	286.425501	37.147015	362.731099	96.113667	32.103341	401.265770	75.582928	36.018379	196.341336	243.583694	78.570992	299.221039	129.710317	79.468384	329.819798	207.697183	440.699011	320.998400	160.480738	445.708454	360.411078	
